<svg width="440" height="166" viewBox="0 0 440 166" fill="none" xmlns="http://www.w3.org/2000/svg">
<path d="M1.74219 36V1.875H10.7656C14.75 1.875 17.9219 3.14062 20.2812 5.67188C22.6562 8.20312 23.8672 11.6719 23.9141 16.0781V21.6094C23.9141 26.0938 22.7266 29.6172 20.3516 32.1797C17.9922 34.7266 14.7344 36 10.5781 36H1.74219ZM8.63281 7.61719V30.2812H10.6953C12.9922 30.2812 14.6094 29.6797 15.5469 28.4766C16.4844 27.2578 16.9766 25.1641 17.0234 22.1953V16.2656C17.0234 13.0781 16.5781 10.8594 15.6875 9.60938C14.7969 8.34375 13.2812 7.67969 11.1406 7.61719H8.63281ZM38.9969 36.4688C35.5906 36.4688 32.9344 35.4531 31.0281 33.4219C29.1219 31.3906 28.1688 28.4844 28.1688 24.7031V22.6875C28.1688 18.6875 29.0438 15.6016 30.7938 13.4297C32.5438 11.2578 35.0516 10.1719 38.3172 10.1719C41.5047 10.1719 43.9031 11.1953 45.5125 13.2422C47.1219 15.2734 47.9422 18.2891 47.9734 22.2891V25.5469H34.7781C34.8719 27.4219 35.2859 28.7969 36.0203 29.6719C36.7547 30.5312 37.8875 30.9609 39.4188 30.9609C41.6375 30.9609 43.4891 30.2031 44.9734 28.6875L47.575 32.6953C46.7625 33.8203 45.5828 34.7344 44.0359 35.4375C42.4891 36.125 40.8094 36.4688 38.9969 36.4688ZM34.825 20.9062H41.4578V20.2969C41.4266 18.7812 41.1766 17.6328 40.7078 16.8516C40.2391 16.0703 39.4266 15.6797 38.2703 15.6797C37.1141 15.6797 36.2703 16.0938 35.7391 16.9219C35.2234 17.75 34.9188 19.0781 34.825 20.9062ZM63.15 29.2031C63.15 28.6406 62.8766 28.125 62.3297 27.6562C61.7984 27.1719 60.6031 26.5234 58.7438 25.7109C56.0094 24.6016 54.1266 23.4531 53.0953 22.2656C52.0797 21.0781 51.5719 19.6016 51.5719 17.8359C51.5719 15.6172 52.3688 13.7891 53.9625 12.3516C55.5719 10.8984 57.6969 10.1719 60.3375 10.1719C63.1188 10.1719 65.3453 10.8906 67.0172 12.3281C68.6891 13.7656 69.525 15.6953 69.525 18.1172H62.8922C62.8922 16.0547 62.0328 15.0234 60.3141 15.0234C59.6109 15.0234 59.0328 15.2422 58.5797 15.6797C58.1266 16.1172 57.9 16.7266 57.9 17.5078C57.9 18.0703 58.15 18.5703 58.65 19.0078C59.15 19.4297 60.3297 20.0391 62.1891 20.8359C64.8922 21.8359 66.7984 22.9531 67.9078 24.1875C69.0328 25.4062 69.5953 26.9922 69.5953 28.9453C69.5953 31.2109 68.7438 33.0312 67.0406 34.4062C65.3375 35.7812 63.1031 36.4688 60.3375 36.4688C58.4781 36.4688 56.8375 36.1094 55.4156 35.3906C53.9938 34.6562 52.8766 33.6406 52.0641 32.3438C51.2672 31.0469 50.8688 29.6484 50.8688 28.1484H57.1734C57.2047 29.3047 57.4703 30.1719 57.9703 30.75C58.4859 31.3281 59.3219 31.6172 60.4781 31.6172C62.2594 31.6172 63.15 30.8125 63.15 29.2031ZM80.8812 36H74.225V10.6406H80.8812V36ZM73.9203 4.07812C73.9203 3.04688 74.2484 2.20312 74.9047 1.54688C75.5609 0.890625 76.4359 0.5625 77.5297 0.5625C78.6234 0.5625 79.4984 0.890625 80.1547 1.54688C80.8109 2.20312 81.1391 3.04688 81.1391 4.07812C81.1391 5.09375 80.8109 5.9375 80.1547 6.60938C79.5141 7.28125 78.6391 7.61719 77.5297 7.61719C76.4203 7.61719 75.5375 7.28125 74.8812 6.60938C74.2406 5.9375 73.9203 5.09375 73.9203 4.07812ZM85.4172 22.5469C85.4172 18.3906 86.1672 15.2891 87.6672 13.2422C89.1672 11.1953 91.2688 10.1719 93.9719 10.1719C96.2688 10.1719 98.0422 11.0781 99.2922 12.8906L99.55 10.6406H105.527V36C105.527 39.2344 104.62 41.7031 102.808 43.4062C100.995 45.125 98.3938 45.9844 95.0031 45.9844C93.6125 45.9844 92.1516 45.7031 90.6203 45.1406C89.0891 44.5938 87.9484 43.8906 87.1984 43.0312L89.425 38.4375C90.05 39.0938 90.8625 39.625 91.8625 40.0312C92.8625 40.4531 93.8078 40.6641 94.6984 40.6641C96.1828 40.6641 97.2453 40.3047 97.8859 39.5859C98.5422 38.8828 98.8781 37.7422 98.8938 36.1641V33.9844C97.6281 35.6406 95.9797 36.4688 93.9484 36.4688C91.2453 36.4688 89.1516 35.4219 87.6672 33.3281C86.1984 31.2188 85.4484 28.25 85.4172 24.4219V22.5469ZM92.05 24.2109C92.05 26.5547 92.3547 28.2656 92.9641 29.3438C93.5734 30.4062 94.5422 30.9375 95.8703 30.9375C97.2297 30.9375 98.2375 30.4453 98.8938 29.4609V17.3438C98.2063 16.2656 97.2141 15.7266 95.9172 15.7266C94.6047 15.7266 93.6281 16.2656 92.9875 17.3438C92.3625 18.4219 92.05 20.1562 92.05 22.5469V24.2109ZM116.625 10.6406L116.812 13.1484C118.312 11.1641 120.273 10.1719 122.695 10.1719C127.055 10.1719 129.297 13.2266 129.422 19.3359V36H122.766V19.8281C122.766 18.3906 122.547 17.3516 122.109 16.7109C121.688 16.0547 120.938 15.7266 119.859 15.7266C118.656 15.7266 117.719 16.3438 117.047 17.5781V36H110.391V10.6406H116.625ZM166.666 7.61719H158.228V36H151.314V7.61719H143.017V1.875H166.666V7.61719ZM176.967 12.8672C178.405 11.0703 180.17 10.1719 182.264 10.1719C184.577 10.1719 186.334 10.9844 187.538 12.6094C188.741 14.2344 189.35 16.6562 189.366 19.875V36H182.709V19.9453C182.709 18.4609 182.475 17.3906 182.006 16.7344C181.553 16.0625 180.811 15.7266 179.78 15.7266C178.577 15.7266 177.639 16.2812 176.967 17.3906V36H170.334V0H176.967V12.8672ZM204.566 36.4688C201.159 36.4688 198.503 35.4531 196.597 33.4219C194.691 31.3906 193.738 28.4844 193.738 24.7031V22.6875C193.738 18.6875 194.613 15.6016 196.363 13.4297C198.113 11.2578 200.62 10.1719 203.886 10.1719C207.073 10.1719 209.472 11.1953 211.081 13.2422C212.691 15.2734 213.511 18.2891 213.542 22.2891V25.5469H200.347C200.441 27.4219 200.855 28.7969 201.589 29.6719C202.323 30.5312 203.456 30.9609 204.988 30.9609C207.206 30.9609 209.058 30.2031 210.542 28.6875L213.144 32.6953C212.331 33.8203 211.152 34.7344 209.605 35.4375C208.058 36.125 206.378 36.4688 204.566 36.4688ZM200.394 20.9062H207.027V20.2969C206.995 18.7812 206.745 17.6328 206.277 16.8516C205.808 16.0703 204.995 15.6797 203.839 15.6797C202.683 15.6797 201.839 16.0938 201.308 16.9219C200.792 17.75 200.488 19.0781 200.394 20.9062ZM216.719 22.5C216.719 18.6562 217.625 15.6406 219.438 13.4531C221.25 11.2656 223.758 10.1719 226.961 10.1719C230.195 10.1719 232.719 11.2656 234.531 13.4531C236.344 15.6406 237.25 18.6719 237.25 22.5469V24.1641C237.25 28.0234 236.352 31.0391 234.555 33.2109C232.758 35.3828 230.242 36.4688 227.008 36.4688C223.758 36.4688 221.227 35.3828 219.414 33.2109C217.617 31.0234 216.719 27.9922 216.719 24.1172V22.5ZM223.375 24.1641C223.375 28.6953 224.586 30.9609 227.008 30.9609C229.242 30.9609 230.445 29.0703 230.617 25.2891L230.641 22.5C230.641 20.1875 230.32 18.4766 229.68 17.3672C229.039 16.2422 228.133 15.6797 226.961 15.6797C225.836 15.6797 224.953 16.2422 224.312 17.3672C223.688 18.4766 223.375 20.1875 223.375 22.5V24.1641ZM254.114 17.0391L251.911 16.8516C250.098 16.8516 248.872 17.6484 248.231 19.2422V36H241.575V10.6406H247.833L248.02 13.3828C249.067 11.2422 250.512 10.1719 252.356 10.1719C253.106 10.1719 253.716 10.2734 254.184 10.4766L254.114 17.0391ZM266.291 24.9609L269.666 10.6406H276.744L268.4 39.7969C267.15 44.0938 264.798 46.2422 261.345 46.2422C260.548 46.2422 259.642 46.0938 258.627 45.7969V40.6172L259.4 40.6406C260.431 40.6406 261.205 40.4375 261.72 40.0312C262.252 39.6406 262.65 38.9531 262.916 37.9688L263.431 36.2578L256.119 10.6406H263.244L266.291 24.9609ZM280.366 32.625C280.366 31.5625 280.717 30.6875 281.42 30C282.139 29.3125 283.069 28.9688 284.209 28.9688C285.319 28.9688 286.241 29.3125 286.975 30C287.709 30.6719 288.077 31.5469 288.077 32.625C288.077 33.7188 287.702 34.6016 286.952 35.2734C286.217 35.9297 285.303 36.2578 284.209 36.2578C283.1 36.2578 282.178 35.9219 281.444 35.25C280.725 34.5781 280.366 33.7031 280.366 32.625ZM280.366 13.4531C280.366 12.3906 280.717 11.5156 281.42 10.8281C282.139 10.1406 283.069 9.79688 284.209 9.79688C285.319 9.79688 286.241 10.1406 286.975 10.8281C287.709 11.5 288.077 12.375 288.077 13.4531C288.077 14.5469 287.702 15.4297 286.952 16.1016C286.217 16.7578 285.303 17.0859 284.209 17.0859C283.1 17.0859 282.178 16.75 281.444 16.0781C280.725 15.4062 280.366 14.5312 280.366 13.4531Z" fill="#FAAD13"/>
<path d="M23.8438 67.6172H15.4062V96H8.49219V67.6172H0.195312V61.875H23.8438V67.6172ZM34.1453 72.8672C35.5828 71.0703 37.3484 70.1719 39.4422 70.1719C41.7547 70.1719 43.5125 70.9844 44.7156 72.6094C45.9188 74.2344 46.5281 76.6562 46.5438 79.875V96H39.8875V79.9453C39.8875 78.4609 39.6531 77.3906 39.1844 76.7344C38.7313 76.0625 37.9891 75.7266 36.9578 75.7266C35.7547 75.7266 34.8172 76.2812 34.1453 77.3906V96H27.5125V60H34.1453V72.8672ZM61.7438 96.4688C58.3375 96.4688 55.6813 95.4531 53.775 93.4219C51.8688 91.3906 50.9156 88.4844 50.9156 84.7031V82.6875C50.9156 78.6875 51.7906 75.6016 53.5406 73.4297C55.2906 71.2578 57.7984 70.1719 61.0641 70.1719C64.2516 70.1719 66.65 71.1953 68.2594 73.2422C69.8688 75.2734 70.6891 78.2891 70.7203 82.2891V85.5469H57.525C57.6188 87.4219 58.0328 88.7969 58.7672 89.6719C59.5016 90.5312 60.6344 90.9609 62.1656 90.9609C64.3844 90.9609 66.2359 90.2031 67.7203 88.6875L70.3219 92.6953C69.5094 93.8203 68.3297 94.7344 66.7828 95.4375C65.2359 96.125 63.5563 96.4688 61.7438 96.4688ZM57.5719 80.9062H64.2047V80.2969C64.1734 78.7812 63.9234 77.6328 63.4547 76.8516C62.9859 76.0703 62.1734 75.6797 61.0172 75.6797C59.8609 75.6797 59.0172 76.0938 58.4859 76.9219C57.9703 77.75 57.6656 79.0781 57.5719 80.9062ZM93.1516 84V96H86.2609V61.875H97.8859C101.261 61.875 103.948 62.9219 105.948 65.0156C107.964 67.1094 108.972 69.8281 108.972 73.1719C108.972 76.5156 107.98 79.1562 105.995 81.0938C104.011 83.0312 101.261 84 97.7453 84H93.1516ZM93.1516 78.2578H97.8859C99.1984 78.2578 100.214 77.8281 100.933 76.9688C101.652 76.1094 102.011 74.8594 102.011 73.2188C102.011 71.5156 101.644 70.1641 100.909 69.1641C100.175 68.1484 99.1906 67.6328 97.9563 67.6172H93.1516V78.2578ZM124.688 89.2031C124.688 88.6406 124.414 88.125 123.867 87.6562C123.336 87.1719 122.141 86.5234 120.281 85.7109C117.547 84.6016 115.664 83.4531 114.633 82.2656C113.617 81.0781 113.109 79.6016 113.109 77.8359C113.109 75.6172 113.906 73.7891 115.5 72.3516C117.109 70.8984 119.234 70.1719 121.875 70.1719C124.656 70.1719 126.883 70.8906 128.555 72.3281C130.227 73.7656 131.062 75.6953 131.062 78.1172H124.43C124.43 76.0547 123.57 75.0234 121.852 75.0234C121.148 75.0234 120.57 75.2422 120.117 75.6797C119.664 76.1172 119.438 76.7266 119.438 77.5078C119.438 78.0703 119.688 78.5703 120.188 79.0078C120.688 79.4297 121.867 80.0391 123.727 80.8359C126.43 81.8359 128.336 82.9531 129.445 84.1875C130.57 85.4062 131.133 86.9922 131.133 88.9453C131.133 91.2109 130.281 93.0312 128.578 94.4062C126.875 95.7812 124.641 96.4688 121.875 96.4688C120.016 96.4688 118.375 96.1094 116.953 95.3906C115.531 94.6562 114.414 93.6406 113.602 92.3438C112.805 91.0469 112.406 89.6484 112.406 88.1484H118.711C118.742 89.3047 119.008 90.1719 119.508 90.75C120.023 91.3281 120.859 91.6172 122.016 91.6172C123.797 91.6172 124.688 90.8125 124.688 89.2031ZM143.591 84.9609L146.966 70.6406H154.044L145.7 99.7969C144.45 104.094 142.098 106.242 138.645 106.242C137.848 106.242 136.942 106.094 135.927 105.797V100.617L136.7 100.641C137.731 100.641 138.505 100.438 139.02 100.031C139.552 99.6406 139.95 98.9531 140.216 97.9688L140.731 96.2578L133.419 70.6406H140.544L143.591 84.9609ZM165.916 90.9609C167.837 90.9609 168.814 89.7109 168.845 87.2109H175.08C175.048 89.9766 174.197 92.2109 172.525 93.9141C170.853 95.6172 168.697 96.4688 166.056 96.4688C162.791 96.4688 160.298 95.4531 158.58 93.4219C156.861 91.3906 155.986 88.3984 155.955 84.4453V82.4297C155.955 78.4453 156.798 75.4062 158.486 73.3125C160.189 71.2188 162.697 70.1719 166.009 70.1719C168.806 70.1719 171.009 71.0391 172.619 72.7734C174.228 74.4922 175.048 76.9375 175.08 80.1094H168.845C168.83 78.6875 168.595 77.5938 168.142 76.8281C167.689 76.0625 166.939 75.6797 165.892 75.6797C164.736 75.6797 163.908 76.0938 163.408 76.9219C162.908 77.7344 162.642 79.3203 162.611 81.6797V84.2578C162.611 86.3203 162.712 87.7656 162.916 88.5938C163.119 89.4062 163.455 90.0078 163.923 90.3984C164.392 90.7734 165.056 90.9609 165.916 90.9609ZM185.498 72.8672C186.936 71.0703 188.702 70.1719 190.795 70.1719C193.108 70.1719 194.866 70.9844 196.069 72.6094C197.272 74.2344 197.881 76.6562 197.897 79.875V96H191.241V79.9453C191.241 78.4609 191.006 77.3906 190.538 76.7344C190.084 76.0625 189.342 75.7266 188.311 75.7266C187.108 75.7266 186.17 76.2812 185.498 77.3906V96H178.866V60H185.498V72.8672ZM202.081 82.5C202.081 78.6562 202.988 75.6406 204.8 73.4531C206.613 71.2656 209.12 70.1719 212.323 70.1719C215.558 70.1719 218.081 71.2656 219.894 73.4531C221.706 75.6406 222.613 78.6719 222.613 82.5469V84.1641C222.613 88.0234 221.714 91.0391 219.917 93.2109C218.12 95.3828 215.605 96.4688 212.37 96.4688C209.12 96.4688 206.589 95.3828 204.777 93.2109C202.98 91.0234 202.081 87.9922 202.081 84.1172V82.5ZM208.738 84.1641C208.738 88.6953 209.948 90.9609 212.37 90.9609C214.605 90.9609 215.808 89.0703 215.98 85.2891L216.003 82.5C216.003 80.1875 215.683 78.4766 215.042 77.3672C214.402 76.2422 213.495 75.6797 212.323 75.6797C211.198 75.6797 210.316 76.2422 209.675 77.3672C209.05 78.4766 208.738 80.1875 208.738 82.5V84.1641ZM233.922 96H227.266V60H233.922V96ZM238.481 82.5C238.481 78.6562 239.387 75.6406 241.2 73.4531C243.012 71.2656 245.52 70.1719 248.723 70.1719C251.958 70.1719 254.481 71.2656 256.294 73.4531C258.106 75.6406 259.012 78.6719 259.012 82.5469V84.1641C259.012 88.0234 258.114 91.0391 256.317 93.2109C254.52 95.3828 252.005 96.4688 248.77 96.4688C245.52 96.4688 242.989 95.3828 241.177 93.2109C239.38 91.0234 238.481 87.9922 238.481 84.1172V82.5ZM245.137 84.1641C245.137 88.6953 246.348 90.9609 248.77 90.9609C251.005 90.9609 252.208 89.0703 252.38 85.2891L252.403 82.5C252.403 80.1875 252.083 78.4766 251.442 77.3672C250.802 76.2422 249.895 75.6797 248.723 75.6797C247.598 75.6797 246.716 76.2422 246.075 77.3672C245.45 78.4766 245.137 80.1875 245.137 82.5V84.1641ZM262.564 82.5469C262.564 78.3906 263.314 75.2891 264.814 73.2422C266.314 71.1953 268.416 70.1719 271.119 70.1719C273.416 70.1719 275.189 71.0781 276.439 72.8906L276.697 70.6406H282.673V96C282.673 99.2344 281.767 101.703 279.955 103.406C278.142 105.125 275.541 105.984 272.15 105.984C270.759 105.984 269.298 105.703 267.767 105.141C266.236 104.594 265.095 103.891 264.345 103.031L266.572 98.4375C267.197 99.0938 268.009 99.625 269.009 100.031C270.009 100.453 270.955 100.664 271.845 100.664C273.33 100.664 274.392 100.305 275.033 99.5859C275.689 98.8828 276.025 97.7422 276.041 96.1641V93.9844C274.775 95.6406 273.127 96.4688 271.095 96.4688C268.392 96.4688 266.298 95.4219 264.814 93.3281C263.345 91.2188 262.595 88.25 262.564 84.4219V82.5469ZM269.197 84.2109C269.197 86.5547 269.502 88.2656 270.111 89.3438C270.72 90.4062 271.689 90.9375 273.017 90.9375C274.377 90.9375 275.384 90.4453 276.041 89.4609V77.3438C275.353 76.2656 274.361 75.7266 273.064 75.7266C271.752 75.7266 270.775 76.2656 270.134 77.3438C269.509 78.4219 269.197 80.1562 269.197 82.5469V84.2109ZM295.834 84.9609L299.209 70.6406H306.288L297.944 99.7969C296.694 104.094 294.342 106.242 290.889 106.242C290.092 106.242 289.186 106.094 288.17 105.797V100.617L288.944 100.641C289.975 100.641 290.748 100.438 291.264 100.031C291.795 99.6406 292.194 98.9531 292.459 97.9688L292.975 96.2578L285.663 70.6406H292.788L295.834 84.9609ZM319.812 82.5C319.812 78.6562 320.719 75.6406 322.531 73.4531C324.344 71.2656 326.852 70.1719 330.055 70.1719C333.289 70.1719 335.812 71.2656 337.625 73.4531C339.438 75.6406 340.344 78.6719 340.344 82.5469V84.1641C340.344 88.0234 339.445 91.0391 337.648 93.2109C335.852 95.3828 333.336 96.4688 330.102 96.4688C326.852 96.4688 324.32 95.3828 322.508 93.2109C320.711 91.0234 319.812 87.9922 319.812 84.1172V82.5ZM326.469 84.1641C326.469 88.6953 327.68 90.9609 330.102 90.9609C332.336 90.9609 333.539 89.0703 333.711 85.2891L333.734 82.5C333.734 80.1875 333.414 78.4766 332.773 77.3672C332.133 76.2422 331.227 75.6797 330.055 75.6797C328.93 75.6797 328.047 76.2422 327.406 77.3672C326.781 78.4766 326.469 80.1875 326.469 82.5V84.1641ZM346.216 96V75.6328H343.145V70.6406H346.216V68.3672C346.231 65.5703 346.966 63.3984 348.419 61.8516C349.888 60.2891 351.911 59.5078 354.489 59.5078C355.27 59.5078 356.27 59.6641 357.489 59.9766L357.442 65.2734C356.989 65.1328 356.45 65.0625 355.825 65.0625C353.856 65.0625 352.872 66.2344 352.872 68.5781V70.6406H356.833V75.6328H352.872V96H346.216ZM24.9453 152.133C23.6172 153.57 21.9844 154.656 20.0469 155.391C18.125 156.109 16.0156 156.469 13.7188 156.469C9.79688 156.469 6.75 155.258 4.57812 152.836C2.40625 150.398 1.28906 146.859 1.22656 142.219V136.078C1.22656 131.375 2.25 127.758 4.29688 125.227C6.35938 122.68 9.35938 121.406 13.2969 121.406C17 121.406 19.7891 122.32 21.6641 124.148C23.5547 125.977 24.6484 128.844 24.9453 132.75H18.2422C18.0547 130.578 17.6016 129.102 16.8828 128.32C16.1641 127.523 15.0391 127.125 13.5078 127.125C11.6484 127.125 10.2969 127.805 9.45312 129.164C8.60938 130.523 8.17188 132.688 8.14062 135.656V141.844C8.14062 144.953 8.60156 147.219 9.52344 148.641C10.4609 150.047 11.9922 150.75 14.1172 150.75C15.4766 150.75 16.5781 150.477 17.4219 149.93L18.0312 149.508V143.25H13.2031V138.047H24.9453V152.133ZM42.2078 137.039L40.0047 136.852C38.1922 136.852 36.9656 137.648 36.325 139.242V156H29.6688V130.641H35.9266L36.1141 133.383C37.1609 131.242 38.6063 130.172 40.45 130.172C41.2 130.172 41.8094 130.273 42.2781 130.477L42.2078 137.039ZM57.1734 156C56.9859 155.609 56.7984 154.953 56.6109 154.031C55.4234 155.656 53.8141 156.469 51.7828 156.469C49.6578 156.469 47.8922 155.766 46.4859 154.359C45.0953 152.953 44.4 151.133 44.4 148.898C44.4 146.242 45.2438 144.188 46.9313 142.734C48.6344 141.281 51.0797 140.539 54.2672 140.508H56.2828V138.469C56.2828 137.328 56.0875 136.523 55.6969 136.055C55.3063 135.586 54.7359 135.352 53.9859 135.352C52.3297 135.352 51.5016 136.32 51.5016 138.258H44.8688C44.8688 135.914 45.7438 133.984 47.4938 132.469C49.2594 130.938 51.4859 130.172 54.1734 130.172C56.9547 130.172 59.1031 130.898 60.6188 132.352C62.15 133.789 62.9156 135.852 62.9156 138.539V150.469C62.9469 152.656 63.2594 154.367 63.8531 155.602V156H57.1734ZM53.2594 151.266C53.9938 151.266 54.6188 151.117 55.1344 150.82C55.65 150.523 56.0328 150.172 56.2828 149.766V144.492H54.6891C53.5641 144.492 52.6734 144.852 52.0172 145.57C51.3766 146.289 51.0563 147.25 51.0563 148.453C51.0563 150.328 51.7906 151.266 53.2594 151.266ZM87.6781 144.117C87.6781 148.102 86.9906 151.156 85.6156 153.281C84.2562 155.406 82.225 156.469 79.5219 156.469C77.4594 156.469 75.8031 155.633 74.5531 153.961V165.75H67.9203V130.641H74.0609L74.2953 132.961C75.5609 131.102 77.2875 130.172 79.475 130.172C82.1781 130.172 84.2094 131.156 85.5687 133.125C86.9437 135.094 87.6469 138.109 87.6781 142.172V144.117ZM81.0687 142.453C81.0687 140 80.7953 138.266 80.2484 137.25C79.7172 136.234 78.8109 135.727 77.5297 135.727C76.1703 135.727 75.1781 136.297 74.5531 137.438V149.32C75.1469 150.414 76.1547 150.961 77.5766 150.961C78.8891 150.961 79.7953 150.406 80.2953 149.297C80.8109 148.188 81.0687 146.461 81.0687 144.117V142.453ZM98.3547 132.867C99.7922 131.07 101.558 130.172 103.652 130.172C105.964 130.172 107.722 130.984 108.925 132.609C110.128 134.234 110.738 136.656 110.753 139.875V156H104.097V139.945C104.097 138.461 103.863 137.391 103.394 136.734C102.941 136.062 102.198 135.727 101.167 135.727C99.9641 135.727 99.0266 136.281 98.3547 137.391V156H91.7219V120H98.3547V132.867ZM122.672 156H116.016V130.641H122.672V156ZM115.711 124.078C115.711 123.047 116.039 122.203 116.695 121.547C117.352 120.891 118.227 120.562 119.32 120.562C120.414 120.562 121.289 120.891 121.945 121.547C122.602 122.203 122.93 123.047 122.93 124.078C122.93 125.094 122.602 125.938 121.945 126.609C121.305 127.281 120.43 127.617 119.32 127.617C118.211 127.617 117.328 127.281 116.672 126.609C116.031 125.938 115.711 125.094 115.711 124.078ZM137.169 150.961C139.091 150.961 140.067 149.711 140.098 147.211H146.333C146.302 149.977 145.45 152.211 143.778 153.914C142.106 155.617 139.95 156.469 137.309 156.469C134.044 156.469 131.552 155.453 129.833 153.422C128.114 151.391 127.239 148.398 127.208 144.445V142.43C127.208 138.445 128.052 135.406 129.739 133.312C131.442 131.219 133.95 130.172 137.262 130.172C140.059 130.172 142.262 131.039 143.872 132.773C145.481 134.492 146.302 136.938 146.333 140.109H140.098C140.083 138.688 139.848 137.594 139.395 136.828C138.942 136.062 138.192 135.68 137.145 135.68C135.989 135.68 135.161 136.094 134.661 136.922C134.161 137.734 133.895 139.32 133.864 141.68V144.258C133.864 146.32 133.966 147.766 134.169 148.594C134.372 149.406 134.708 150.008 135.177 150.398C135.645 150.773 136.309 150.961 137.169 150.961ZM161.873 156V121.875H170.897C174.881 121.875 178.053 123.141 180.413 125.672C182.788 128.203 183.998 131.672 184.045 136.078V141.609C184.045 146.094 182.858 149.617 180.483 152.18C178.123 154.727 174.866 156 170.709 156H161.873ZM168.764 127.617V150.281H170.827C173.123 150.281 174.741 149.68 175.678 148.477C176.616 147.258 177.108 145.164 177.155 142.195V136.266C177.155 133.078 176.709 130.859 175.819 129.609C174.928 128.344 173.413 127.68 171.272 127.617H168.764ZM199.128 156.469C195.722 156.469 193.066 155.453 191.159 153.422C189.253 151.391 188.3 148.484 188.3 144.703V142.688C188.3 138.688 189.175 135.602 190.925 133.43C192.675 131.258 195.183 130.172 198.448 130.172C201.636 130.172 204.034 131.195 205.644 133.242C207.253 135.273 208.073 138.289 208.105 142.289V145.547H194.909C195.003 147.422 195.417 148.797 196.152 149.672C196.886 150.531 198.019 150.961 199.55 150.961C201.769 150.961 203.62 150.203 205.105 148.688L207.706 152.695C206.894 153.82 205.714 154.734 204.167 155.438C202.62 156.125 200.941 156.469 199.128 156.469ZM194.956 140.906H201.589V140.297C201.558 138.781 201.308 137.633 200.839 136.852C200.37 136.07 199.558 135.68 198.402 135.68C197.245 135.68 196.402 136.094 195.87 136.922C195.355 137.75 195.05 139.078 194.956 140.906ZM223.281 149.203C223.281 148.641 223.008 148.125 222.461 147.656C221.93 147.172 220.734 146.523 218.875 145.711C216.141 144.602 214.258 143.453 213.227 142.266C212.211 141.078 211.703 139.602 211.703 137.836C211.703 135.617 212.5 133.789 214.094 132.352C215.703 130.898 217.828 130.172 220.469 130.172C223.25 130.172 225.477 130.891 227.148 132.328C228.82 133.766 229.656 135.695 229.656 138.117H223.023C223.023 136.055 222.164 135.023 220.445 135.023C219.742 135.023 219.164 135.242 218.711 135.68C218.258 136.117 218.031 136.727 218.031 137.508C218.031 138.07 218.281 138.57 218.781 139.008C219.281 139.43 220.461 140.039 222.32 140.836C225.023 141.836 226.93 142.953 228.039 144.188C229.164 145.406 229.727 146.992 229.727 148.945C229.727 151.211 228.875 153.031 227.172 154.406C225.469 155.781 223.234 156.469 220.469 156.469C218.609 156.469 216.969 156.109 215.547 155.391C214.125 154.656 213.008 153.641 212.195 152.344C211.398 151.047 211 149.648 211 148.148H217.305C217.336 149.305 217.602 150.172 218.102 150.75C218.617 151.328 219.453 151.617 220.609 151.617C222.391 151.617 223.281 150.812 223.281 149.203ZM241.012 156H234.356V130.641H241.012V156ZM234.052 124.078C234.052 123.047 234.38 122.203 235.036 121.547C235.692 120.891 236.567 120.562 237.661 120.562C238.755 120.562 239.63 120.891 240.286 121.547C240.942 122.203 241.27 123.047 241.27 124.078C241.27 125.094 240.942 125.938 240.286 126.609C239.645 127.281 238.77 127.617 237.661 127.617C236.552 127.617 235.669 127.281 235.012 126.609C234.372 125.938 234.052 125.094 234.052 124.078ZM245.548 142.547C245.548 138.391 246.298 135.289 247.798 133.242C249.298 131.195 251.4 130.172 254.103 130.172C256.4 130.172 258.173 131.078 259.423 132.891L259.681 130.641H265.658V156C265.658 159.234 264.752 161.703 262.939 163.406C261.127 165.125 258.525 165.984 255.134 165.984C253.744 165.984 252.283 165.703 250.752 165.141C249.22 164.594 248.08 163.891 247.33 163.031L249.556 158.438C250.181 159.094 250.994 159.625 251.994 160.031C252.994 160.453 253.939 160.664 254.83 160.664C256.314 160.664 257.377 160.305 258.017 159.586C258.673 158.883 259.009 157.742 259.025 156.164V153.984C257.759 155.641 256.111 156.469 254.08 156.469C251.377 156.469 249.283 155.422 247.798 153.328C246.33 151.219 245.58 148.25 245.548 144.422V142.547ZM252.181 144.211C252.181 146.555 252.486 148.266 253.095 149.344C253.705 150.406 254.673 150.938 256.002 150.938C257.361 150.938 258.369 150.445 259.025 149.461V137.344C258.337 136.266 257.345 135.727 256.048 135.727C254.736 135.727 253.759 136.266 253.119 137.344C252.494 138.422 252.181 140.156 252.181 142.547V144.211ZM276.756 130.641L276.944 133.148C278.444 131.164 280.405 130.172 282.827 130.172C287.186 130.172 289.428 133.227 289.553 139.336V156H282.897V139.828C282.897 138.391 282.678 137.352 282.241 136.711C281.819 136.055 281.069 135.727 279.991 135.727C278.788 135.727 277.85 136.344 277.178 137.578V156H270.522V130.641H276.756ZM312.992 144V156H306.102V121.875H317.727C321.102 121.875 323.789 122.922 325.789 125.016C327.805 127.109 328.812 129.828 328.812 133.172C328.812 136.516 327.82 139.156 325.836 141.094C323.852 143.031 321.102 144 317.586 144H312.992ZM312.992 138.258H317.727C319.039 138.258 320.055 137.828 320.773 136.969C321.492 136.109 321.852 134.859 321.852 133.219C321.852 131.516 321.484 130.164 320.75 129.164C320.016 128.148 319.031 127.633 317.797 127.617H312.992V138.258ZM345.817 137.039L343.614 136.852C341.802 136.852 340.575 137.648 339.934 139.242V156H333.278V130.641H339.536L339.723 133.383C340.77 131.242 342.216 130.172 344.059 130.172C344.809 130.172 345.419 130.273 345.888 130.477L345.817 137.039ZM356.4 156H349.744V130.641H356.4V156ZM349.439 124.078C349.439 123.047 349.767 122.203 350.423 121.547C351.08 120.891 351.955 120.562 353.048 120.562C354.142 120.562 355.017 120.891 355.673 121.547C356.33 122.203 356.658 123.047 356.658 124.078C356.658 125.094 356.33 125.938 355.673 126.609C355.033 127.281 354.158 127.617 353.048 127.617C351.939 127.617 351.056 127.281 350.4 126.609C349.759 125.938 349.439 125.094 349.439 124.078ZM370.897 150.961C372.819 150.961 373.795 149.711 373.827 147.211H380.061C380.03 149.977 379.178 152.211 377.506 153.914C375.834 155.617 373.678 156.469 371.038 156.469C367.772 156.469 365.28 155.453 363.561 153.422C361.842 151.391 360.967 148.398 360.936 144.445V142.43C360.936 138.445 361.78 135.406 363.467 133.312C365.17 131.219 367.678 130.172 370.991 130.172C373.788 130.172 375.991 131.039 377.6 132.773C379.209 134.492 380.03 136.938 380.061 140.109H373.827C373.811 138.688 373.577 137.594 373.123 136.828C372.67 136.062 371.92 135.68 370.873 135.68C369.717 135.68 368.889 136.094 368.389 136.922C367.889 137.734 367.623 139.32 367.592 141.68V144.258C367.592 146.32 367.694 147.766 367.897 148.594C368.1 149.406 368.436 150.008 368.905 150.398C369.373 150.773 370.038 150.961 370.897 150.961ZM390.972 156H384.316V130.641H390.972V156ZM384.011 124.078C384.011 123.047 384.339 122.203 384.995 121.547C385.652 120.891 386.527 120.562 387.62 120.562C388.714 120.562 389.589 120.891 390.245 121.547C390.902 122.203 391.23 123.047 391.23 124.078C391.23 125.094 390.902 125.938 390.245 126.609C389.605 127.281 388.73 127.617 387.62 127.617C386.511 127.617 385.628 127.281 384.972 126.609C384.331 125.938 384.011 125.094 384.011 124.078ZM402.375 130.641L402.562 133.148C404.062 131.164 406.023 130.172 408.445 130.172C412.805 130.172 415.047 133.227 415.172 139.336V156H408.516V139.828C408.516 138.391 408.297 137.352 407.859 136.711C407.438 136.055 406.688 135.727 405.609 135.727C404.406 135.727 403.469 136.344 402.797 137.578V156H396.141V130.641H402.375ZM419.333 142.547C419.333 138.391 420.083 135.289 421.583 133.242C423.083 131.195 425.184 130.172 427.888 130.172C430.184 130.172 431.958 131.078 433.208 132.891L433.466 130.641H439.442V156C439.442 159.234 438.536 161.703 436.723 163.406C434.911 165.125 432.309 165.984 428.919 165.984C427.528 165.984 426.067 165.703 424.536 165.141C423.005 164.594 421.864 163.891 421.114 163.031L423.341 158.438C423.966 159.094 424.778 159.625 425.778 160.031C426.778 160.453 427.723 160.664 428.614 160.664C430.098 160.664 431.161 160.305 431.802 159.586C432.458 158.883 432.794 157.742 432.809 156.164V153.984C431.544 155.641 429.895 156.469 427.864 156.469C425.161 156.469 423.067 155.422 421.583 153.328C420.114 151.219 419.364 148.25 419.333 144.422V142.547ZM425.966 144.211C425.966 146.555 426.27 148.266 426.88 149.344C427.489 150.406 428.458 150.938 429.786 150.938C431.145 150.938 432.153 150.445 432.809 149.461V137.344C432.122 136.266 431.13 135.727 429.833 135.727C428.52 135.727 427.544 136.266 426.903 137.344C426.278 138.422 425.966 140.156 425.966 142.547V144.211Z" fill="#183B56"/>
</svg>
